<svg width="886" height="905" viewBox="0 0 886 905" fill="none" xmlns="http://www.w3.org/2000/svg">
<path d="M693.5 453.097C693.5 495.96 663.557 525.931 620.736 525.931C577.914 525.931 547.971 495.96 547.971 453.097C547.971 410.234 577.914 380.263 620.736 380.263C663.557 380.263 693.5 410.234 693.5 453.097Z" fill="#00C9A7"/>
<path d="M527.693 271.61C527.693 314.472 501.45 345.637 444.193 345.637C417.95 346.831 397.671 358.771 373.814 380.263C358.307 395.785 346.845 419.253 345.186 453.097C345.186 455.03 347.266 492.37 365.464 516.379C365.464 516.379 383.139 539.26 401.25 547.423C418.499 555.197 428.686 558.169 446.579 560.557C489.4 560.557 527.693 580.854 527.693 635.778C527.693 678.641 494.172 711 451.35 711C419.143 711 378.586 682.344 373.814 635.778C373.814 635.778 376.2 599.051 342.8 562.945C312.979 530.707 270.036 530.707 270.036 530.707C227.214 530.707 192.5 495.96 192.5 453.097C192.5 410.234 227.214 375.487 270.036 375.487C283.157 375.487 319.982 370.489 342.8 343.249C377.393 301.954 369.748 296.897 375.007 259.67C380.267 222.442 411.004 194 450.157 194C492.979 194 527.693 228.747 527.693 271.61Z" fill="#00C9A7"/>
</svg>
