<svg width="799" height="825" viewBox="0 0 799 825" fill="none" xmlns="http://www.w3.org/2000/svg">
<path d="M799 413.453C799 481.851 751.247 529.677 682.955 529.677C614.662 529.677 566.91 481.851 566.91 413.453C566.91 345.055 614.662 297.229 682.955 297.229C751.247 297.229 799 345.055 799 413.453Z" fill="#00C9A7"/>
<path d="M534.569 123.845C534.569 192.243 492.717 241.975 401.402 241.975C359.55 243.88 327.21 262.933 289.162 297.229C264.431 321.998 246.151 359.447 243.505 413.453C243.505 416.536 246.822 476.123 275.845 514.434C275.845 514.434 304.033 550.946 332.917 563.972C360.425 576.378 376.671 581.12 405.207 584.931C473.5 584.931 534.569 617.321 534.569 704.965C534.569 773.363 481.109 825 412.817 825C361.452 825 296.771 779.273 289.162 704.965C289.162 704.965 292.967 646.358 239.7 588.741C192.14 537.298 123.655 537.298 123.655 537.298C55.3621 537.298 0 481.851 0 413.453C0 345.055 55.3621 289.607 123.655 289.607C144.581 289.607 203.309 281.631 239.7 238.164C294.869 172.268 282.676 164.198 291.064 104.792C299.452 45.3864 348.472 0 410.914 0C479.207 0 534.569 55.4474 534.569 123.845Z" fill="#00C9A7"/>
</svg>
