<svg width="1762" height="743" viewBox="0 0 1762 743" fill="none" xmlns="http://www.w3.org/2000/svg">
<path d="M603 372.025C603 409.748 576.643 436.125 538.95 436.125C501.257 436.125 474.9 409.748 474.9 372.025C474.9 334.303 501.257 307.926 538.95 307.926C576.643 307.926 603 334.303 603 372.025Z" fill="#00C9A7"/>
<path d="M457.05 212.303C457.05 250.025 433.95 277.453 383.55 277.453C360.45 278.503 342.6 289.012 321.6 307.926C307.95 321.587 297.861 342.24 296.4 372.025C296.4 373.726 298.231 406.589 314.25 427.718C314.25 427.718 329.808 447.855 345.75 455.039C360.933 461.881 369.9 464.497 385.65 466.598C423.343 466.598 457.05 484.462 457.05 532.799C457.05 570.522 427.543 599 389.85 599C361.5 599 325.8 573.781 321.6 532.799C321.6 532.799 323.7 500.476 294.3 468.7C268.05 440.328 230.25 440.328 230.25 440.328C192.557 440.328 162 409.748 162 372.025C162 334.303 192.557 303.723 230.25 303.723C241.8 303.723 274.214 299.324 294.3 275.351C324.75 239.008 318.02 234.558 322.65 201.794C327.28 169.031 354.336 144 388.8 144C426.493 144 457.05 174.58 457.05 212.303Z" fill="#00C9A7"/>
<path d="M1570.16 356.194V333.765L1568.7 328.988V289.737C1568.7 282.122 1566.42 276.238 1561.85 272.085C1557.28 267.793 1550.36 265.647 1541.08 265.647C1534.85 265.647 1528.69 266.616 1522.6 268.554C1516.64 270.492 1511.59 273.192 1507.44 276.654L1497.26 257.755C1503.21 253.186 1510.27 249.794 1518.44 247.579C1526.75 245.225 1535.33 244.048 1544.2 244.048C1560.26 244.048 1572.65 247.925 1581.37 255.678C1590.23 263.293 1594.66 275.131 1594.66 291.191V356.194H1570.16ZM1535.27 357.648C1526.96 357.648 1519.69 356.263 1513.46 353.494C1507.23 350.587 1502.38 346.641 1498.92 341.657C1495.6 336.534 1493.94 330.788 1493.94 324.419C1493.94 318.189 1495.39 312.582 1498.3 307.598C1501.34 302.613 1506.26 298.667 1513.04 295.76C1519.83 292.852 1528.83 291.399 1540.04 291.399H1572.23V308.636H1541.91C1533.05 308.636 1527.1 310.09 1524.05 312.997C1521 315.766 1519.48 319.227 1519.48 323.381C1519.48 328.088 1521.35 331.827 1525.09 334.596C1528.83 337.365 1534.02 338.749 1540.66 338.749C1547.03 338.749 1552.71 337.295 1557.69 334.388C1562.82 331.48 1566.49 327.188 1568.7 321.512L1573.06 337.088C1570.57 343.595 1566.07 348.648 1559.56 352.248C1553.19 355.848 1545.1 357.648 1535.27 357.648Z" fill="#293644"/>
<path d="M1441.8 356.194V245.294H1467.76V356.194H1441.8ZM1454.88 227.019C1450.03 227.019 1446.02 225.496 1442.83 222.45C1439.79 219.404 1438.27 215.735 1438.27 211.443C1438.27 207.012 1439.79 203.343 1442.83 200.436C1446.02 197.39 1450.03 195.867 1454.88 195.867C1459.73 195.867 1463.67 197.321 1466.72 200.228C1469.9 202.997 1471.49 206.528 1471.49 210.82C1471.49 215.389 1469.97 219.265 1466.93 222.45C1463.88 225.496 1459.86 227.019 1454.88 227.019Z" fill="#293644"/>
<path d="M1395.52 357.648C1383.34 357.648 1373.92 354.533 1367.28 348.302C1360.63 341.934 1357.31 332.588 1357.31 320.266V220.788H1383.27V319.643C1383.27 324.904 1384.58 328.988 1387.21 331.896C1389.98 334.803 1393.79 336.257 1398.64 336.257C1404.45 336.257 1409.3 334.734 1413.17 331.688L1420.44 350.171C1417.4 352.664 1413.66 354.533 1409.23 355.779C1404.8 357.025 1400.23 357.648 1395.52 357.648ZM1339.03 266.893V246.125H1412.97V266.893H1339.03Z" fill="#293644"/>
<path d="M1293.75 356.194V245.294H1319.71V356.194H1293.75ZM1306.83 227.019C1301.98 227.019 1297.97 225.496 1294.78 222.45C1291.74 219.404 1290.22 215.735 1290.22 211.443C1290.22 207.012 1291.74 203.343 1294.78 200.436C1297.97 197.39 1301.98 195.867 1306.83 195.867C1311.68 195.867 1315.62 197.321 1318.67 200.228C1321.85 202.997 1323.44 206.528 1323.44 210.82C1323.44 215.389 1321.92 219.265 1318.87 222.45C1315.83 225.496 1311.81 227.019 1306.83 227.019Z" fill="#293644"/>
<path d="M1214.5 244.048C1223.36 244.048 1231.26 245.779 1238.18 249.24C1245.24 252.701 1250.78 258.032 1254.79 265.231C1258.81 272.292 1260.81 281.43 1260.81 292.645V356.194H1234.85V295.968C1234.85 286.138 1232.5 278.8 1227.79 273.954C1223.22 269.108 1216.79 266.685 1208.48 266.685C1202.39 266.685 1196.99 267.931 1192.28 270.423C1187.57 272.915 1183.9 276.654 1181.27 281.638C1178.78 286.484 1177.54 292.645 1177.54 300.121V356.194H1151.58V245.294H1176.29V275.2L1171.93 266.062C1175.81 259.001 1181.41 253.601 1188.75 249.863C1196.23 245.987 1204.81 244.048 1214.5 244.048Z" fill="#293644"/>
<path d="M1057.64 397.937C1047.39 397.937 1037.35 396.553 1027.52 393.784C1017.83 391.153 1009.87 387.276 1003.64 382.154L1015.27 362.632C1020.12 366.647 1026.21 369.831 1033.55 372.185C1041.02 374.677 1048.57 375.923 1056.18 375.923C1068.37 375.923 1077.3 373.085 1082.97 367.409C1088.65 361.871 1091.49 353.494 1091.49 342.28V322.55L1093.56 297.421L1092.73 272.292V245.294H1117.45V339.372C1117.45 359.448 1112.32 374.193 1102.08 383.607C1091.83 393.161 1077.02 397.937 1057.64 397.937ZM1054.31 351.21C1043.79 351.21 1034.24 348.995 1025.65 344.564C1017.21 339.995 1010.49 333.696 1005.51 325.665C1000.66 317.635 998.24 308.221 998.24 297.421C998.24 286.761 1000.66 277.415 1005.51 269.385C1010.49 261.355 1017.21 255.124 1025.65 250.694C1034.24 246.263 1043.79 244.048 1054.31 244.048C1063.73 244.048 1072.17 245.917 1079.65 249.656C1087.13 253.394 1093.08 259.209 1097.51 267.1C1102.08 274.992 1104.36 285.099 1104.36 297.421C1104.36 309.744 1102.08 319.92 1097.51 327.95C1093.08 335.842 1087.13 341.726 1079.65 345.602C1072.17 349.341 1063.73 351.21 1054.31 351.21ZM1058.26 329.196C1064.77 329.196 1070.58 327.881 1075.7 325.25C1080.83 322.481 1084.77 318.743 1087.54 314.036C1090.45 309.19 1091.9 303.652 1091.9 297.421C1091.9 291.191 1090.45 285.722 1087.54 281.015C1084.77 276.169 1080.83 272.5 1075.7 270.008C1070.58 267.377 1064.77 266.062 1058.26 266.062C1051.75 266.062 1045.87 267.377 1040.61 270.008C1035.48 272.5 1031.47 276.169 1028.56 281.015C1025.79 285.722 1024.41 291.191 1024.41 297.421C1024.41 303.652 1025.79 309.19 1028.56 314.036C1031.47 318.743 1035.48 322.481 1040.61 325.25C1045.87 327.881 1051.75 329.196 1058.26 329.196Z" fill="#293644"/>
<path d="M923.365 357.648C912.012 357.648 901.905 355.225 893.044 350.379C884.183 345.395 877.192 338.611 872.069 330.027C866.946 321.443 864.385 311.682 864.385 300.744C864.385 289.668 866.946 279.907 872.069 271.462C877.192 262.878 884.183 256.163 893.044 251.317C901.905 246.471 912.012 244.048 923.365 244.048C934.857 244.048 945.033 246.471 953.894 251.317C962.893 256.163 969.885 262.808 974.869 271.254C979.992 279.7 982.553 289.53 982.553 300.744C982.553 311.682 979.992 321.443 974.869 330.027C969.885 338.611 962.893 345.395 953.894 350.379C945.033 355.225 934.857 357.648 923.365 357.648ZM923.365 335.426C929.734 335.426 935.41 334.042 940.395 331.273C945.379 328.504 949.256 324.489 952.025 319.227C954.932 313.966 956.386 307.805 956.386 300.744C956.386 293.545 954.932 287.384 952.025 282.261C949.256 277 945.379 272.985 940.395 270.216C935.41 267.447 929.803 266.062 923.573 266.062C917.204 266.062 911.528 267.447 906.543 270.216C901.697 272.985 897.821 277 894.913 282.261C892.006 287.384 890.552 293.545 890.552 300.744C890.552 307.805 892.006 313.966 894.913 319.227C897.821 324.489 901.697 328.504 906.543 331.273C911.528 334.042 917.135 335.426 923.365 335.426Z" fill="#293644"/>
<path d="M796.671 358.271C785.595 358.271 775.281 356.471 765.727 352.871C756.313 349.133 748.075 343.941 741.014 337.295C734.091 330.511 728.692 322.55 724.815 313.412C720.938 304.275 719 294.306 719 283.507C719 272.708 720.938 262.739 724.815 253.601C728.692 244.464 734.16 236.572 741.221 229.926C748.283 223.142 756.52 217.95 765.935 214.35C775.35 210.612 785.664 208.743 796.879 208.743C808.786 208.743 819.654 210.82 829.484 214.973C839.314 218.988 847.622 225.011 854.406 233.041L836.961 249.448C831.7 243.771 825.815 239.549 819.308 236.779C812.801 233.872 805.74 232.418 798.125 232.418C790.51 232.418 783.518 233.664 777.15 236.156C770.919 238.649 765.451 242.179 760.743 246.748C756.174 251.317 752.575 256.717 749.944 262.947C747.452 269.177 746.206 276.031 746.206 283.507C746.206 290.983 747.452 297.837 749.944 304.067C752.575 310.297 756.174 315.697 760.743 320.266C765.451 324.835 770.919 328.365 777.15 330.857C783.518 333.349 790.51 334.596 798.125 334.596C805.74 334.596 812.801 333.211 819.308 330.442C825.815 327.535 831.7 323.173 836.961 317.358L854.406 333.973C847.622 341.864 839.314 347.887 829.484 352.04C819.654 356.194 808.717 358.271 796.671 358.271Z" fill="#293644"/>
<path d="M1590.92 522.336V507.882L1590.55 505.514V481.341C1590.55 475.775 1588.97 471.497 1585.81 468.506C1582.74 465.516 1578.13 464.02 1571.98 464.02C1567.74 464.02 1563.71 464.727 1559.89 466.139C1556.07 467.551 1552.83 469.42 1550.17 471.746L1546.19 465.142C1549.51 462.317 1553.5 460.158 1558.15 458.662C1562.8 457.084 1567.7 456.295 1572.85 456.295C1581.32 456.295 1587.85 458.413 1592.41 462.65C1597.07 466.803 1599.39 473.158 1599.39 481.715V522.336H1590.92ZM1568.37 522.959C1563.46 522.959 1559.19 522.17 1555.53 520.592C1551.96 518.93 1549.22 516.687 1547.31 513.863C1545.4 510.955 1544.44 507.633 1544.44 503.894C1544.44 500.489 1545.23 497.415 1546.81 494.674C1548.47 491.849 1551.13 489.606 1554.78 487.945C1558.52 486.2 1563.51 485.328 1569.74 485.328H1592.29V491.932H1569.99C1563.67 491.932 1559.27 493.054 1556.78 495.297C1554.37 497.54 1553.16 500.322 1553.16 503.645C1553.16 507.383 1554.62 510.374 1557.53 512.617C1560.43 514.86 1564.5 515.981 1569.74 515.981C1574.72 515.981 1579 514.86 1582.57 512.617C1586.23 510.291 1588.88 506.968 1590.55 502.648L1592.54 508.754C1590.88 513.074 1587.97 516.521 1583.82 519.096C1579.75 521.672 1574.6 522.959 1568.37 522.959Z" fill="#293644"/>
<path d="M1516.46 522.336V456.918H1525.31V522.336H1516.46ZM1520.95 442.464C1519.12 442.464 1517.58 441.841 1516.34 440.594C1515.09 439.348 1514.47 437.853 1514.47 436.109C1514.47 434.364 1515.09 432.91 1516.34 431.747C1517.58 430.501 1519.12 429.878 1520.95 429.878C1522.77 429.878 1524.31 430.46 1525.56 431.623C1526.8 432.786 1527.43 434.24 1527.43 435.984C1527.43 437.812 1526.8 439.348 1525.56 440.594C1524.39 441.841 1522.86 442.464 1520.95 442.464Z" fill="#293644"/>
<path d="M1459.07 547.133C1453.09 547.133 1447.36 546.261 1441.87 544.516C1436.39 542.772 1431.95 540.28 1428.54 537.04L1433.03 530.311C1436.1 533.052 1439.88 535.212 1444.37 536.791C1448.93 538.452 1453.75 539.283 1458.82 539.283C1467.13 539.283 1473.23 537.331 1477.14 533.426C1481.04 529.605 1482.99 523.624 1482.99 515.483V499.159L1484.24 487.945L1483.37 476.73V456.918H1491.84V514.361C1491.84 525.659 1489.06 533.925 1483.49 539.158C1478.01 544.475 1469.87 547.133 1459.07 547.133ZM1457.45 519.844C1451.22 519.844 1445.61 518.515 1440.63 515.857C1435.64 513.115 1431.7 509.336 1428.79 504.517C1425.96 499.699 1424.55 494.175 1424.55 487.945C1424.55 481.715 1425.96 476.232 1428.79 471.497C1431.7 466.679 1435.64 462.94 1440.63 460.282C1445.61 457.624 1451.22 456.295 1457.45 456.295C1463.26 456.295 1468.5 457.499 1473.15 459.908C1477.8 462.317 1481.5 465.889 1484.24 470.625C1486.98 475.36 1488.35 481.133 1488.35 487.945C1488.35 494.757 1486.98 500.53 1484.24 505.265C1481.5 510 1477.8 513.614 1473.15 516.106C1468.5 518.598 1463.26 519.844 1457.45 519.844ZM1458.32 511.994C1463.14 511.994 1467.42 510.997 1471.16 509.003C1474.89 506.927 1477.84 504.102 1480 500.53C1482.16 496.875 1483.24 492.68 1483.24 487.945C1483.24 483.21 1482.16 479.056 1480 475.484C1477.84 471.912 1474.89 469.129 1471.16 467.136C1467.42 465.059 1463.14 464.02 1458.32 464.02C1453.59 464.02 1449.31 465.059 1445.49 467.136C1441.75 469.129 1438.8 471.912 1436.64 475.484C1434.56 479.056 1433.52 483.21 1433.52 487.945C1433.52 492.68 1434.56 496.875 1436.64 500.53C1438.8 504.102 1441.75 506.927 1445.49 509.003C1449.31 510.997 1453.59 511.994 1458.32 511.994Z" fill="#293644"/>
<path d="M1379.7 522.959C1373.39 522.959 1367.7 521.547 1362.63 518.723C1357.65 515.815 1353.7 511.869 1350.79 506.885C1347.89 501.818 1346.43 496.044 1346.43 489.565C1346.43 483.002 1347.89 477.229 1350.79 472.244C1353.7 467.26 1357.65 463.356 1362.63 460.531C1367.61 457.707 1373.31 456.295 1379.7 456.295C1386.18 456.295 1391.91 457.707 1396.9 460.531C1401.96 463.356 1405.91 467.26 1408.73 472.244C1411.64 477.229 1413.1 483.002 1413.1 489.565C1413.1 496.044 1411.64 501.818 1408.73 506.885C1405.91 511.869 1401.96 515.815 1396.9 518.723C1391.83 521.547 1386.1 522.959 1379.7 522.959ZM1379.7 515.109C1384.44 515.109 1388.63 514.071 1392.29 511.994C1395.94 509.834 1398.81 506.843 1400.88 503.022C1403.04 499.118 1404.12 494.632 1404.12 489.565C1404.12 484.414 1403.04 479.928 1400.88 476.107C1398.81 472.286 1395.94 469.337 1392.29 467.26C1388.63 465.1 1384.48 464.02 1379.83 464.02C1375.17 464.02 1371.02 465.1 1367.37 467.26C1363.71 469.337 1360.8 472.286 1358.64 476.107C1356.48 479.928 1355.4 484.414 1355.4 489.565C1355.4 494.632 1356.48 499.118 1358.64 503.022C1360.8 506.843 1363.71 509.834 1367.37 511.994C1371.02 514.071 1375.13 515.109 1379.7 515.109Z" fill="#293644"/>
<path d="M1319.57 522.336V429.878H1328.42V522.336H1319.57Z" fill="#293644"/>
<path d="M1268.12 522.959C1261.8 522.959 1256.11 521.547 1251.04 518.723C1246.06 515.815 1242.11 511.869 1239.21 506.885C1236.3 501.818 1234.85 496.044 1234.85 489.565C1234.85 483.002 1236.3 477.229 1239.21 472.244C1242.11 467.26 1246.06 463.356 1251.04 460.531C1256.03 457.707 1261.72 456.295 1268.12 456.295C1274.6 456.295 1280.33 457.707 1285.31 460.531C1290.38 463.356 1294.32 467.26 1297.15 472.244C1300.06 477.229 1301.51 483.002 1301.51 489.565C1301.51 496.044 1300.06 501.818 1297.15 506.885C1294.32 511.869 1290.38 515.815 1285.31 518.723C1280.24 521.547 1274.51 522.959 1268.12 522.959ZM1268.12 515.109C1272.85 515.109 1277.05 514.071 1280.7 511.994C1284.36 509.834 1287.22 506.843 1289.3 503.022C1291.46 499.118 1292.54 494.632 1292.54 489.565C1292.54 484.414 1291.46 479.928 1289.3 476.107C1287.22 472.286 1284.36 469.337 1280.7 467.26C1277.05 465.1 1272.89 464.02 1268.24 464.02C1263.59 464.02 1259.43 465.1 1255.78 467.26C1252.12 469.337 1249.22 472.286 1247.06 476.107C1244.9 479.928 1243.82 484.414 1243.82 489.565C1243.82 494.632 1244.9 499.118 1247.06 503.022C1249.22 506.843 1252.12 509.834 1255.78 511.994C1259.43 514.071 1263.55 515.109 1268.12 515.109Z" fill="#293644"/>
<path d="M1190.64 456.295C1195.95 456.295 1200.61 457.333 1204.59 459.41C1208.66 461.404 1211.82 464.477 1214.06 468.631C1216.39 472.784 1217.55 478.018 1217.55 484.331V522.336H1208.7V485.203C1208.7 478.309 1206.96 473.117 1203.47 469.628C1200.07 466.056 1195.25 464.27 1189.02 464.27C1184.36 464.27 1180.29 465.225 1176.81 467.136C1173.4 468.963 1170.74 471.663 1168.83 475.235C1167 478.724 1166.09 482.961 1166.09 487.945V522.336H1157.24V456.918H1165.72V474.861L1164.34 471.497C1166.42 466.762 1169.74 463.065 1174.31 460.407C1178.88 457.665 1184.32 456.295 1190.64 456.295Z" fill="#293644"/>
<path d="M1114.19 522.959C1107.71 522.959 1101.9 521.547 1096.75 518.723C1091.68 515.815 1087.69 511.869 1084.79 506.885C1081.88 501.818 1080.43 496.044 1080.43 489.565C1080.43 483.002 1081.88 477.229 1084.79 472.245C1087.69 467.26 1091.68 463.356 1096.75 460.532C1101.9 457.707 1107.71 456.295 1114.19 456.295C1119.76 456.295 1124.79 457.375 1129.27 459.535C1133.76 461.695 1137.29 464.934 1139.86 469.254L1133.26 473.74C1131.02 470.417 1128.23 467.966 1124.91 466.388C1121.59 464.81 1117.97 464.021 1114.07 464.021C1109.42 464.021 1105.22 465.1 1101.48 467.26C1097.75 469.337 1094.8 472.286 1092.64 476.107C1090.48 479.929 1089.4 484.414 1089.4 489.565C1089.4 494.715 1090.48 499.201 1092.64 503.022C1094.8 506.844 1097.75 509.834 1101.48 511.994C1105.22 514.071 1109.42 515.109 1114.07 515.109C1117.97 515.109 1121.59 514.32 1124.91 512.742C1128.23 511.163 1131.02 508.754 1133.26 505.514L1139.86 510C1137.29 514.237 1133.76 517.477 1129.27 519.72C1124.79 521.879 1119.76 522.959 1114.19 522.959Z" fill="#293644"/>
<path d="M1039.62 522.959C1032.8 522.959 1026.82 521.547 1021.67 518.723C1016.52 515.815 1012.49 511.869 1009.59 506.885C1006.68 501.818 1005.22 496.044 1005.22 489.565C1005.22 483.085 1006.6 477.353 1009.34 472.369C1012.16 467.385 1015.98 463.48 1020.8 460.656C1025.7 457.749 1031.18 456.295 1037.25 456.295C1043.4 456.295 1048.84 457.707 1053.57 460.531C1058.39 463.273 1062.17 467.177 1064.91 472.244C1067.65 477.229 1069.02 483.002 1069.02 489.565C1069.02 489.98 1068.98 490.437 1068.9 490.935C1068.9 491.351 1068.9 491.808 1068.9 492.306H1011.95V485.702H1064.16L1060.67 488.319C1060.67 483.584 1059.64 479.389 1057.56 475.733C1055.57 471.995 1052.82 469.088 1049.34 467.011C1045.85 464.934 1041.82 463.896 1037.25 463.896C1032.76 463.896 1028.73 464.934 1025.16 467.011C1021.59 469.088 1018.81 471.995 1016.81 475.733C1014.82 479.472 1013.82 483.75 1013.82 488.568V489.939C1013.82 494.923 1014.9 499.326 1017.06 503.147C1019.31 506.885 1022.38 509.834 1026.28 511.994C1030.27 514.071 1034.8 515.109 1039.87 515.109C1043.85 515.109 1047.55 514.403 1050.96 512.991C1054.44 511.579 1057.43 509.419 1059.93 506.511L1064.91 512.243C1062 515.732 1058.35 518.39 1053.95 520.218C1049.63 522.045 1044.85 522.959 1039.62 522.959Z" fill="#293644"/>
<path d="M984.203 522.959C978.056 522.959 973.321 521.298 969.998 517.975C966.675 514.652 965.014 509.959 965.014 503.894V442.464H973.861V503.396C973.861 507.217 974.816 510.166 976.727 512.243C978.72 514.32 981.545 515.358 985.2 515.358C989.104 515.358 992.344 514.237 994.919 511.994L998.034 518.349C996.29 519.927 994.172 521.09 991.68 521.838C989.271 522.585 986.778 522.959 984.203 522.959ZM953.301 464.27V456.918H993.798V464.27H953.301Z" fill="#293644"/>
</svg>
